<svg width="19" height="19" viewBox="293 332 19 19" xmlns="http://www.w3.org/2000/svg"><path d="M310.744 333.23c-1.633-1.638-4.29-1.638-5.922 0l-10.86 10.853c-.084.085-.136.194-.152.312l-.805 5.958c-.024.17.037.34.154.457.1.1.24.162.383.162.024 0 .048 0 .073-.004l3.59-.485c.3-.04.51-.316.468-.615-.04-.3-.315-.51-.614-.47l-2.878.39.562-4.156 4.374 4.374c.1.1.242.16.384.16.14 0 .283-.055.384-.16l10.858-10.855c.792-.79 1.23-1.842 1.23-2.962s-.438-2.17-1.23-2.96zm-5.712 1.333l1.823 1.823-9.908 9.91-1.823-1.825 9.908-9.907zm-5.526 14.286l-1.783-1.783 9.908-9.91 1.784 1.784-9.908 9.91zm10.668-10.69l-4.362-4.36c.554-.458 1.245-.708 1.973-.708.83 0 1.605.323 2.19.905.587.582.906 1.362.906 2.19 0 .733-.25 1.42-.706 1.974z" fill="#9DC10E" fill-rule="evenodd"/></svg>